<?xml version="1.0" encoding="UTF-8"?>
<svg width="15px" height="14px" viewBox="0 0 15 14" version="1.1" xmlns="http://www.w3.org/2000/svg" xmlns:xlink="http://www.w3.org/1999/xlink">
    <!-- Generator: sketchtool 52.2 (67145) - http://www.bohemiancoding.com/sketch -->
    <title>5CF68E5E-8E1D-482B-921A-825C5AADFF46</title>
    <desc>Created with sketchtool.</desc>
    <defs>
        <polygon id="path-1" points="0.00381355932 0.0209745763 14.9920551 0.0209745763 14.9920551 13.3475212 0.00381355932 13.3475212"></polygon>
    </defs>
    <g id="Page-1" stroke="none" stroke-width="1" fill="none" fill-rule="evenodd">
        <g id="Главная" transform="translate(-1468.000000, -53.000000)">
            <g id="Шапка">
                <g id="Group-10">
                    <g id="Group-9" transform="translate(1446.000000, 53.000000)">
                        <g id="shop" transform="translate(22.000000, 0.000000)">
                            <mask id="mask-2" fill="white">
                                <use xlink:href="#path-1"></use>
                            </mask>
                            <g id="Clip-2"></g>
                            <path d="M14.6869068,3.81762712 L4.47896186,3.81762712 L4.47896186,3.61480932 C4.47896186,1.96970339 5.81764831,0.631207627 7.46275424,0.631207627 L7.52930085,0.631207627 C8.58470339,0.631207627 9.57216102,1.19777542 10.1061864,2.10972458 C10.1913559,2.25521186 10.3780297,2.30389831 10.5235169,2.21872881 C10.6690042,2.13381356 10.7176907,1.94682203 10.6327754,1.80133475 C9.98974576,0.703220339 8.80048729,0.0209745763 7.52930085,0.0209745763 L7.46275424,0.0209745763 C5.48097458,0.0209745763 3.86891949,1.6332839 3.86891949,3.61480932 L3.86891949,3.81762712 L0.305148305,3.81762712 C0.136525424,3.81762712 0,3.95415254 0,4.12277542 L0,13.0424364 C0,13.2107415 0.136525424,13.3475212 0.305148305,13.3475212 L14.6869068,13.3475212 C14.8555297,13.3475212 14.9920551,13.2107415 14.9920551,13.0424364 L14.9920551,4.12277542 C14.9920551,3.95415254 14.8555297,3.81762712 14.6869068,3.81762712 Z M0.61029661,12.7372881 L14.3817585,12.7372881 L14.3817585,4.42792373 L0.61029661,4.42792373 L0.61029661,12.7372881 Z" id="Fill-1" fill="#272727" mask="url(#mask-2)"></path>
                        </g>
                    </g>
                </g>
            </g>
        </g>
    </g>
</svg>