<?xml version="1.0" encoding="UTF-8"?>
<svg width="70px" height="25px" viewBox="0 0 70 25" version="1.1" xmlns="http://www.w3.org/2000/svg" xmlns:xlink="http://www.w3.org/1999/xlink">
    <!-- Generator: sketchtool 52.2 (67145) - http://www.bohemiancoding.com/sketch -->
    <title>129AE6B1-DA53-4047-B70E-7C11467D95BE</title>
    <desc>Created with sketchtool.</desc>
    <g id="Page-1" stroke="none" stroke-width="1" fill="none" fill-rule="evenodd">
        <g id="Главная" transform="translate(-1000.000000, -2316.000000)" fill="#8C8C8C" fill-rule="nonzero">
            <g id="Стиль" transform="translate(393.000000, 2212.000000)">
                <g id="Group-12" transform="translate(0.000000, 61.000000)">
                    <g id="flat-shoe" transform="translate(607.000000, 43.000000)">
                        <path d="M48.0490878,21.6879392 C48.1493581,21.7335811 48.2465541,21.9925338 48.3326351,22.1325338 C48.7753378,22.8540541 49.6971622,24.7275 51.7725676,24.7275 L63.0420946,24.7275 C63.8210811,24.7275 64.5499324,24.3065541 64.9912162,23.6644932 C73.7875676,10.8630068 67.7983108,2.62949324 67.5391216,2.29959459 C67.1529392,1.80841216 66.5882095,1.48962838 65.9676689,1.41347973 C65.2674324,1.32763514 64.5253378,1.28412162 63.761723,1.28412162 C57.3936149,1.28412162 49.9353041,4.24233108 43.3550676,6.85219595 C38.9263851,8.60881757 34.7434122,10.2677703 32.5899662,10.2677703 C29.6428716,10.2677703 27.7069932,8.59557432 25.8344932,6.97847973 C24.2864527,5.64162162 22.6856757,4.25888514 20.6228041,4.25888514 C19.8575338,4.25888514 18.1623986,4.39415541 16.0534122,4.76969595 L16.5249662,2.36652027 C16.7262162,1.34135135 16.0579054,0.346925676 15.0325,0.145675676 C14.0078041,-0.0539189189 13.0129054,0.612736486 12.8116554,1.63814189 L12.4313851,3.57685811 L10.5439865,2.14256757 C9.71179054,1.51043919 8.52510135,1.67243243 7.89297297,2.50391892 C7.26060811,3.33611486 7.42260135,4.52280405 8.25432432,5.15493243 L9.87945946,6.39010135 C5.8047973,7.85986486 1.84222973,10.2587838 0.404864865,14.0770946 C-0.281182432,15.899223 -0.0924662162,17.6593919 0.950912162,19.1669932 C2.625,21.5860135 7.17452703,24.7275 27.2699662,24.7275 C34.5114189,24.7275 40.4304392,24.3670946 40.67875,24.3484122 C41.0081757,24.3238176 41.3286149,24.2306419 41.6199662,24.0745608 C45.4955068,21.9982095 47.4521959,21.4147973 48.0490878,21.6879392 Z M4.83993243,16.4755405 C4.75361486,16.3506757 4.65570946,16.2092568 4.83094595,15.7436149 C5.67756757,13.4943919 8.67858108,11.8406419 11.8988176,10.7322297 C12.6669257,12.3166892 13.8084459,15.4742568 13.1247635,19.2745946 C6.56202703,18.3426014 5.11733108,16.8759122 4.83993243,16.4755405 Z M64.26,6.01385135 C65.0787162,7.81233108 66.2852703,12.4824662 61.7697973,19.6253041 L52.3434459,19.6253041 C51.7976351,18.7372973 50.670777,16.9584459 47.8327027,16.9584459 C45.9051014,16.9584459 43.356723,17.8204392 39.8394595,19.6655068 C38.2788851,19.7683784 33.1703041,20.0725 27.2702027,20.0725 C23.5431757,20.0725 20.4333784,19.9566216 17.8353378,19.76625 C18.5223311,15.4553378 17.4895946,11.7871959 16.5209459,9.49871622 C18.2527365,9.15510135 19.7409459,8.98790541 20.6041216,8.98766892 C20.9933784,9.04655405 22.0469257,9.95631757 22.7438514,10.5584122 C24.9131419,12.4318581 27.8838851,14.9977365 32.5909122,14.9977365 C35.6482095,14.9977365 40.0281757,13.2602703 45.0998649,11.2489527 C51.2858784,8.79493243 58.7957432,6.01385135 64.26,6.01385135 Z" id="Shape"></path>
                    </g>
                </g>
            </g>
        </g>
    </g>
</svg>