<?xml version="1.0" encoding="UTF-8"?>
<svg width="70px" height="70px" viewBox="0 0 70 70" version="1.1" xmlns="http://www.w3.org/2000/svg" xmlns:xlink="http://www.w3.org/1999/xlink">
    <!-- Generator: sketchtool 52.2 (67145) - http://www.bohemiancoding.com/sketch -->
    <title>565AA284-2981-461C-B1AC-93B9DC8D5B4D</title>
    <desc>Created with sketchtool.</desc>
    <g id="Page-1" stroke="none" stroke-width="1" fill="none" fill-rule="evenodd">
        <g id="Главная" transform="translate(-1456.000000, -2273.000000)" fill="#8C8C8C" fill-rule="nonzero">
            <g id="Стиль" transform="translate(393.000000, 2212.000000)">
                <g id="Group-12" transform="translate(0.000000, 61.000000)">
                    <g id="boot" transform="translate(1063.000000, 0.000000)">
                        <path d="M69.7689761,12.0082253 C69.7689761,11.4283959 69.5580205,10.8683959 69.1757679,10.4323891 C68.898157,10.1160751 62.1043345,2.6540273 38.4849488,0.145972696 C37.7718089,0.07 37.0598635,0.319658703 36.5497952,0.825904437 C36.039727,1.33215017 35.7848123,2.04075085 35.8550512,2.75580205 C35.8626962,2.83249147 36.6107167,10.5303413 36.6102389,18.8789761 C36.6090444,33.4420819 34.413959,37.2091809 33.4700341,38.1531058 C29.0452218,42.5783959 15.8180887,47.3943003 9.46170648,49.7086007 C7.38440273,50.4649829 6.01211604,50.9645392 5.3047099,51.2999659 C0.512935154,53.5724573 -1.38303754,59.8817747 1.07819113,65.364471 C1.31996587,65.9029693 1.75238908,66.3330034 2.29255973,66.5714334 C2.57590444,66.6963823 9.35300341,69.6361433 19.9041297,69.6361433 C27.9918771,69.6361433 36.0640956,67.9243686 43.8966894,64.5481229 C44.4934812,64.291058 45.0821502,64.055256 45.6641297,63.8361775 L45.6641297,66.4634471 C45.6641297,67.7826962 46.733959,68.8525256 48.0532082,68.8525256 L67.3798976,68.8525256 C68.6991468,68.8525256 69.7689761,67.7826962 69.7689761,66.4634471 L69.7689761,12.0082253 Z M64.9908191,13.071843 L64.9908191,22.3579522 C61.0055973,19.0693857 53.8343003,15.2595222 41.3074061,13.792628 C41.2020478,10.3513993 41.0125939,7.32395904 40.8573038,5.23853242 C56.505529,7.29576792 63.0943686,11.5667235 64.9908191,13.071843 Z M41.3883959,18.6161775 C51.5118771,19.8900341 57.4069283,22.7590785 60.6032765,24.995256 C63.3151195,26.8919454 64.5540956,28.6393174 64.9908191,29.3648805 L64.9908191,56.4756655 C64.1897611,56.4694539 63.3839249,56.4630034 62.5716382,56.4630034 C56.7714334,56.4630034 49.920273,56.7487372 42.005256,60.1603413 C34.7735154,63.2776109 27.3372696,64.8582253 19.9038908,64.8582253 C12.5053925,64.8582253 7.13450512,63.2527645 5.10856655,62.5374744 C4.16822526,59.4849488 5.42440273,56.53157 7.35191126,55.6175085 C7.85696246,55.377884 9.35825939,54.8315017 11.096314,54.1986348 C18.288157,51.5802048 31.6751195,46.7062457 36.8489078,41.5319795 C39.9028669,38.4784983 41.3874403,30.8054949 41.3883959,18.6161775 Z M50.4422867,64.0746075 L50.4422867,62.3833788 C54.8188396,61.3598976 58.8011945,61.2413993 62.5718771,61.2413993 C63.3829693,61.2413993 64.187372,61.2476109 64.9865188,61.2540614 C64.9879522,61.2540614 64.9896246,61.2540614 64.991058,61.2540614 L64.991058,64.0748464 L50.4422867,64.0748464 L50.4422867,64.0746075 Z" id="Shape"></path>
                    </g>
                </g>
            </g>
        </g>
    </g>
</svg>