<?xml version="1.0" encoding="UTF-8"?>
<svg width="30px" height="30px" viewBox="0 0 30 30" version="1.1" xmlns="http://www.w3.org/2000/svg" xmlns:xlink="http://www.w3.org/1999/xlink">
    <!-- Generator: sketchtool 52.2 (67145) - http://www.bohemiancoding.com/sketch -->
    <title>9A23B207-666C-4434-8249-C5F55C3C382C</title>
    <desc>Created with sketchtool.</desc>
    <g id="Page-1" stroke="none" stroke-width="1" fill="none" fill-rule="evenodd">
        <g id="Главная" transform="translate(-1361.000000, -3158.000000)" fill="#FFFFFF" fill-rule="nonzero">
            <g id="Футер" transform="translate(0.000000, 2929.000000)">
                <g id="speech-bubble">
                    <g transform="translate(1361.000000, 229.000000)">
                        <path d="M15,0 C6.71582386,0 0,6.71602387 0,15 C0,23.2839761 6.71582386,30 15,30 C23.2839761,30 30,23.2839761 30,15 C30,6.71602387 23.2838761,0 15,0 Z M15,23.428881 C13.229041,23.428881 11.5706857,23.0128671 10.1425381,22.290543 C9.75992533,22.5968532 8.02896763,23.8669956 6.31141038,23.2727758 C7.34964499,22.289543 7.5389513,21.1426048 7.51385046,20.3457782 C6.1410047,18.8912297 5.31677723,17.0294676 5.31677723,15 C5.31707724,10.3446448 9.65232174,6.57051902 15,6.57051902 C20.3478783,6.57051902 24.6832228,10.3445448 24.6832228,15 C24.6832228,19.6554552 20.3478783,23.428881 15,23.428881 Z" id="Shape"></path>
                    </g>
                </g>
            </g>
        </g>
    </g>
</svg>