<?xml version="1.0" encoding="UTF-8"?>
<svg width="70px" height="41px" viewBox="0 0 70 41" version="1.1" xmlns="http://www.w3.org/2000/svg" xmlns:xlink="http://www.w3.org/1999/xlink">
    <!-- Generator: sketchtool 52.2 (67145) - http://www.bohemiancoding.com/sketch -->
    <title>96D7408C-EC4C-4F25-87B3-D135126404DD</title>
    <desc>Created with sketchtool.</desc>
    <g id="Page-1" stroke="none" stroke-width="1" fill="none" fill-rule="evenodd">
        <g id="Главная" transform="translate(-393.000000, -2300.000000)" fill="#8C8C8C" fill-rule="nonzero">
            <g id="Стиль" transform="translate(393.000000, 2212.000000)">
                <g id="Group-12" transform="translate(0.000000, 61.000000)">
                    <g id="crocs" transform="translate(0.000000, 27.000000)">
                        <path d="M32.8512838,18.4823649 C34.4846959,18.4823649 35.8135135,17.1535473 35.8135135,15.5201351 C35.8135135,13.886723 34.4846959,12.5579054 32.8512838,12.5579054 C31.2178716,12.5579054 29.8890541,13.886723 29.8890541,15.5201351 C29.8888176,17.1535473 31.2178716,18.4823649 32.8512838,18.4823649 Z M32.8512838,15.1590203 C33.0504054,15.1590203 33.2121622,15.320777 33.2121622,15.5198986 C33.2121622,15.7190203 33.0501689,15.880777 32.8512838,15.880777 C32.6523986,15.880777 32.4904054,15.7187838 32.4904054,15.5198986 C32.4901689,15.3210135 32.6521622,15.1590203 32.8512838,15.1590203 Z" id="Shape"></path>
                        <path d="M29.268277,26.582973 C30.9016892,26.582973 32.2305068,25.2541554 32.2305068,23.6207432 C32.2305068,21.9873311 30.9016892,20.6585135 29.268277,20.6585135 C27.6348649,20.6585135 26.3060473,21.9873311 26.3060473,23.6207432 C26.3060473,25.2541554 27.6348649,26.582973 29.268277,26.582973 Z M29.268277,23.2596284 C29.4673986,23.2596284 29.6291554,23.4216216 29.6291554,23.6205068 C29.6291554,23.8193919 29.4671622,23.9813851 29.268277,23.9813851 C29.0691554,23.9813851 28.9073986,23.8193919 28.9073986,23.6205068 C28.9073986,23.4216216 29.0693919,23.2596284 29.268277,23.2596284 Z" id="Shape"></path>
                        <path d="M18.2078041,27.0502703 C19.8412162,27.0502703 21.1700338,25.7214527 21.1700338,24.0880405 C21.1700338,22.4546284 19.8412162,21.1258108 18.2078041,21.1258108 C16.5743919,21.1258108 15.2455743,22.4546284 15.2455743,24.0880405 C15.2453378,25.7214527 16.5743919,27.0502703 18.2078041,27.0502703 Z M18.2078041,23.7271622 C18.4069257,23.7271622 18.5686824,23.8891554 18.5686824,24.0880405 C18.5686824,24.2871622 18.4066892,24.4489189 18.2078041,24.4489189 C18.0089189,24.4489189 17.8469257,24.2869257 17.8469257,24.0880405 C17.8466892,23.8889189 18.0086824,23.7271622 18.2078041,23.7271622 Z" id="Shape"></path>
                        <path d="M56.6193581,40.039527 C59.8395946,39.9818243 65.3421622,39.8784797 69.3650338,32.4069257 C69.5364865,32.0888514 69.6325,31.735777 69.6462162,31.3748986 C69.6462162,31.3748986 69.6897297,26.3434122 69.8718243,24.6780743 C70.2984459,20.7755743 68.6811149,17.2883446 68.582973,17.1031757 C68.1511486,16.2877703 67.287027,15.7984797 66.3630743,15.8481419 C65.2969932,15.9067905 64.2304392,15.9365878 63.1925,15.9365878 C61.2431419,15.9365878 59.4115541,15.829223 57.6889865,15.6416892 L64.269223,10.701723 C65.5351351,9.75152027 66.3758446,8.37777027 66.6364527,6.83327703 C66.9051014,5.24148649 66.5293243,3.66719595 65.5784122,2.40057432 C64.4837162,0.942635135 62.7859797,0.106418919 60.9208108,0.106418919 C59.6076014,0.106418919 58.3010135,0.544391892 57.2415541,1.33969595 L43.5927365,11.5857095 C42.7253041,11.1437162 41.9413514,10.6988851 41.2437162,10.2677703 C36.7105068,7.46564189 34.632027,4.62 34.6178378,4.60060811 C34.2117905,4.02523649 33.5702027,3.66081081 32.8683108,3.60665541 C32.1673649,3.55344595 31.4763514,3.81381757 30.9865878,4.32013514 C30.9113851,4.39793919 23.3729054,12.1310473 16.8799324,13.9347297 C14.8364527,14.5022973 12.7154054,14.6813176 10.6641216,14.8546622 C8.21743243,15.0611149 5.90648649,15.2559797 4.02547297,16.1269595 C1.57807432,17.2599662 0.160810811,19.7000338 0.044222973,22.6400338 C0.0409121622,22.7199662 -0.0804054054,24.9937838 0.0945945946,27.0897635 C0.384527027,30.5611486 1.10273649,32.5622973 2.42327703,33.5780068 C4.62307432,35.2700676 21.1664865,42.0763851 30.9584459,38.5153716 C33.1405068,37.7219595 34.7975676,37.0373311 36.129223,36.4872635 C40.04,34.8711149 40.3594932,34.7396284 43.2789189,35.9693581 C43.8923649,36.2276014 44.4897297,36.4822973 45.0714865,36.7303716 C49.4051014,38.5785135 53.5027027,40.039527 56.6193581,40.039527 Z M60.2229392,5.31148649 C60.4856757,5.11425676 60.7474662,5.07263514 60.9205743,5.07263514 C61.057027,5.07263514 61.3968581,5.10290541 61.6063851,5.38219595 C61.7671959,5.59621622 61.7674324,5.84050676 61.7390541,6.00746622 C61.7113851,6.17158784 61.6158446,6.48398649 61.2876014,6.73040541 L44.1799324,19.5728041 C43.9169595,19.7700338 43.6551689,19.8114189 43.4818243,19.8114189 C43.3456081,19.8114189 43.005777,19.7813851 42.79625,19.5020946 C42.6354392,19.2880743 42.6352027,19.0437838 42.6633446,18.8768243 C42.6910135,18.7129392 42.7865541,18.4005405 43.1147973,18.1541216 L60.2229392,5.31148649 Z M23.5859797,18.7741892 C23.5859797,18.9733108 23.4239865,19.1350676 23.2251014,19.1350676 C23.0259797,19.1350676 22.864223,18.9730743 22.864223,18.7741892 C22.864223,18.5753041 23.0262162,18.4133108 23.2251014,18.4133108 C23.4239865,18.4133108 23.5859797,18.5753041 23.5859797,18.7741892 Z M10.2706081,21.5890878 C10.2706081,21.7882095 10.1086149,21.9499662 9.90972973,21.9499662 C9.71060811,21.9499662 9.54885135,21.787973 9.54885135,21.5890878 C9.54885135,21.3899662 9.71084459,21.2282095 9.90972973,21.2282095 C10.1088514,21.227973 10.2706081,21.3899662 10.2706081,21.5890878 Z M7.41314189,20.0008446 C7.11989865,20.4603378 6.94726351,21.0044932 6.94726351,21.5890878 C6.94726351,23.2225 8.27608108,24.5513176 9.90949324,24.5513176 C11.5429054,24.5513176 12.871723,23.2225 12.871723,21.5890878 C12.871723,20.7677703 12.5354392,20.0240203 11.9938851,19.4869595 C13.9167568,19.3164527 16.0233784,19.0811486 18.1456081,18.4915878 C18.9215203,18.2761486 19.7019257,17.9956757 20.4785473,17.6686149 C20.3404392,18.0105743 20.2623986,18.3835135 20.2623986,18.7744257 C20.2623986,20.4078378 21.5912162,21.7366554 23.2246284,21.7366554 C24.8580405,21.7366554 26.1868581,20.4078378 26.1868581,18.7744257 C26.1868581,17.3897973 25.2307432,16.2274662 23.9449662,15.9041892 C27.4759459,13.8181419 30.6372973,11.1352027 32.5353378,9.39158784 C33.9462162,10.8339189 36.2238176,12.8317568 39.4816554,14.7461149 C38.579223,15.6421622 37.9790203,16.7895946 37.7661824,18.0510135 C37.4975338,19.6430405 37.8735473,21.2173311 38.8244595,22.4837162 C39.9189189,23.9414189 41.6164189,24.7773986 43.4815878,24.7773986 C44.7950338,24.7773986 46.1013851,24.3394257 47.1610811,23.5443581 L52.3997297,19.6118243 C55.5965541,20.2685473 59.1842905,20.6665541 63.192027,20.6665541 C63.7572297,20.6665541 64.3297635,20.658277 64.9056081,20.6421959 C65.2168243,21.7078041 65.4611149,23.2508784 64.9006419,24.6407095 C63.6763514,25.1370946 60.80375,26.1161486 57.2020608,26.1161486 C55.9508108,26.1163851 54.704527,25.9981419 53.4975,25.7654392 C52.2032095,25.515473 50.9311486,25.3941554 49.6087162,25.3941554 C46.0834122,25.3941554 42.8589189,26.2958784 39.7403716,27.1678041 C37.1574662,27.8900338 34.4865878,28.6368581 31.5224662,28.9282095 C30.739223,29.0053041 29.8072297,29.0443243 28.7517905,29.0443243 C20.2108446,29.0443243 8.38935811,26.6827703 5.35239865,23.5218919 C4.99861486,23.1534459 4.82456081,22.8308784 4.8352027,22.5629392 C4.8964527,21.0487162 5.31929054,20.4057095 7.41314189,20.0008446 Z M5.41743243,29.9025338 C5.32378378,29.7275338 5.23510135,29.4506081 5.15422297,29.1039189 C11.7387162,32.5800338 23.2636486,33.7740541 28.7525,33.7740541 C29.2614189,33.7740541 29.7476351,33.7653041 30.2116216,33.7489865 C29.9304392,33.8539865 29.6426351,33.9606419 29.3418243,34.0701351 C21.9967905,36.7410135 7.65530405,31.3188514 5.41743243,29.9025338 Z M56.6815541,35.3079054 C54.5352027,35.3975338 50.7445608,34.0079392 46.9269595,32.3794932 C46.3385811,32.1283446 45.7343581,31.8708108 45.1142905,31.6094932 C44.5663514,31.3786824 44.0593243,31.1861824 43.5820946,31.0256081 C45.6028716,30.5100676 47.5813176,30.1236486 49.6089527,30.1236486 C50.6272635,30.1236486 51.6060811,30.2172973 52.6016892,30.4093243 C54.1033784,30.6990203 55.6514189,30.8461149 57.2025338,30.8458784 C60.3946284,30.8456419 63.1080743,30.2286486 64.9782095,29.635777 L64.9406081,30.6325676 C62.3243581,35.2021959 59.3297297,35.2603716 56.6815541,35.3079054 Z" id="Shape"></path>
                    </g>
                </g>
            </g>
        </g>
    </g>
</svg>