<?xml version="1.0" encoding="UTF-8"?>
<svg width="30px" height="30px" viewBox="0 0 30 30" version="1.1" xmlns="http://www.w3.org/2000/svg" xmlns:xlink="http://www.w3.org/1999/xlink">
    <!-- Generator: sketchtool 52.2 (67145) - http://www.bohemiancoding.com/sketch -->
    <title>CB4F68D4-D774-42CE-9A54-8B1B6792C14E</title>
    <desc>Created with sketchtool.</desc>
    <g id="Page-1" stroke="none" stroke-width="1" fill="none" fill-rule="evenodd">
        <g id="Главная" transform="translate(-1361.000000, -3108.000000)" fill="#FFFFFF" fill-rule="nonzero">
            <g id="Футер" transform="translate(0.000000, 2929.000000)">
                <g id="email-(1)">
                    <g transform="translate(1361.000000, 179.000000)">
                        <path d="M14.9996,0 C6.7157,0 0.0001,6.7158 0.0001,14.9997 C0.0001,23.2834 6.7157,29.9997 14.9996,29.9997 C23.2835,29.9997 29.9996,23.2834 29.9996,14.9997 C29.9996,6.7158 23.2835,0 14.9996,0 Z M14.9999,5.2686 L23.8762,10.8036 L6.1236,10.8036 L14.9999,5.2686 Z M23.9868,19.6423 L23.9859,19.6423 C23.9859,20.5301 23.2664,21.2495 22.3787,21.2495 L7.6211,21.2495 C6.7333,21.2495 6.0139,20.53 6.0139,19.6423 L6.0139,11.1558 C6.0139,11.0619 6.0235,10.9706 6.0391,10.8809 L14.5199,16.1692 C14.5303,16.1757 14.5414,16.1801 14.5521,16.1861 C14.5633,16.1923 14.5747,16.1983 14.5861,16.204 C14.646,16.2349 14.7077,16.2598 14.7708,16.2761 C14.7773,16.2779 14.7838,16.2787 14.7903,16.2802 C14.8595,16.2965 14.9296,16.3067 14.9996,16.3067 L15.0001,16.3067 C15.0006,16.3067 15.0011,16.3067 15.0011,16.3067 C15.0711,16.3067 15.1412,16.2968 15.2104,16.2802 C15.2169,16.2786 15.2234,16.2779 15.2299,16.2761 C15.2929,16.2598 15.3544,16.2349 15.4146,16.204 C15.426,16.1983 15.4374,16.1923 15.4486,16.1861 C15.4592,16.1801 15.4704,16.1757 15.4808,16.1692 L23.9616,10.8809 C23.9772,10.9706 23.9868,11.0617 23.9868,11.1558 L23.9868,19.6423 Z" id="Shape"></path>
                    </g>
                </g>
            </g>
        </g>
    </g>
</svg>