<?xml version="1.0" encoding="UTF-8"?>
<svg width="15px" height="15px" viewBox="0 0 15 15" version="1.1" xmlns="http://www.w3.org/2000/svg" xmlns:xlink="http://www.w3.org/1999/xlink">
    <!-- Generator: sketchtool 52.2 (67145) - http://www.bohemiancoding.com/sketch -->
    <title>14D6310C-5F84-4248-AF09-D9D5D07AFD9A</title>
    <desc>Created with sketchtool.</desc>
    <g id="Page-1" stroke="none" stroke-width="1" fill="none" fill-rule="evenodd">
        <g id="Главная" transform="translate(-393.000000, -10.000000)">
            <rect fill="#FFFFFF" x="0" y="0" width="1920" height="3278"></rect>
            <g id="Шапка">
                <g id="Group-10">
                    <g id="Навигация1" fill="#444444">
                        <rect id="Rectangle" x="0" y="0" width="1920" height="34"></rect>
                    </g>
                    <g id="facebook-logo" transform="translate(393.000000, 10.000000)" fill="#717171">
                        <path d="M15,2.50016667 C15,1.1865 13.814,0 12.5,0 L2.5,0 C1.186,0 0,1.1865 0,2.50016667 L0,12.4998333 C0,13.8135 1.186,15 2.50016667,15 L7.5,15 L7.5,9.33333333 L5.66666667,9.33333333 L5.66666667,6.83333333 L7.5,6.83333333 L7.5,5.85933333 C7.5,4.1795 8.76133333,2.66666667 10.3125,2.66666667 L12.3333333,2.66666667 L12.3333333,5.16666667 L10.3125,5.16666667 C10.0913333,5.16666667 9.83333333,5.43516667 9.83333333,5.83733333 L9.83333333,6.83333333 L12.3333333,6.83333333 L12.3333333,9.33333333 L9.83333333,9.33333333 L9.83333333,15 L12.5,15 C13.814,15 15,13.8135 15,12.4998333 L15,2.50016667 Z" id="Facebook__x28_alt_x29_"></path>
                    </g>
                </g>
            </g>
        </g>
    </g>
</svg>