<?xml version="1.0" encoding="UTF-8"?>
<svg width="15px" height="15px" viewBox="0 0 15 15" version="1.1" xmlns="http://www.w3.org/2000/svg" xmlns:xlink="http://www.w3.org/1999/xlink">
    <!-- Generator: sketchtool 52.2 (67145) - http://www.bohemiancoding.com/sketch -->
    <title>DDC22BFC-B9BF-453F-B585-F2DEA35D28EB</title>
    <desc>Created with sketchtool.</desc>
    <g id="Page-1" stroke="none" stroke-width="1" fill="none" fill-rule="evenodd">
        <g id="Главная" transform="translate(-423.000000, -10.000000)" fill="#717171" fill-rule="nonzero">
            <g id="Шапка">
                <g id="Group-10">
                    <g id="instagram-social-network-logo-of-photo-camera" transform="translate(423.000000, 10.000000)">
                        <path d="M1.91341837,0 L12.9939796,0 C14.0462755,0 14.9072449,0.779081633 14.9072449,1.91326531 L14.9072449,12.9941327 C14.9072449,14.1283163 14.0462755,14.907398 12.9939796,14.907398 L1.91341837,14.907398 C0.860816327,14.907398 0,14.1283163 0,12.9941327 L0,1.91326531 C0,0.779081633 0.860816327,0 1.91341837,0 Z M10.8593878,1.65627551 C10.4902041,1.65627551 10.1885204,1.95811224 10.1885204,2.32744898 L10.1885204,3.93382653 C10.1885204,4.3030102 10.4902041,4.605 10.8593878,4.605 L12.5442857,4.605 C12.9134694,4.605 13.2154592,4.3030102 13.2154592,3.93382653 L13.2154592,2.32744898 C13.2154592,1.95811224 12.9134694,1.65627551 12.5442857,1.65627551 L10.8593878,1.65627551 Z M13.2225,6.30428571 L11.9104592,6.30428571 C12.0345918,6.70959184 12.1017857,7.13892857 12.1017857,7.58311224 C12.1017857,10.0627041 10.0268878,12.0727041 7.46785714,12.0727041 C4.90897959,12.0727041 2.83438776,10.0627041 2.83438776,7.58311224 C2.83438776,7.13862245 2.90142857,6.70943878 3.02571429,6.30428571 L1.65658163,6.30428571 L1.65658163,12.6013776 C1.65658163,12.9272449 1.92321429,13.1940306 2.24923469,13.1940306 L12.6301531,13.1940306 C12.9561735,13.1940306 13.2228061,12.927398 13.2228061,12.6013776 L13.2228061,6.30428571 L13.2225,6.30428571 Z M7.46770408,4.52035714 C5.81433673,4.52035714 4.47382653,5.81908163 4.47382653,7.42132653 C4.47382653,9.02357143 5.81433673,10.3222959 7.46770408,10.3222959 C9.12122449,10.3222959 10.4618878,9.02357143 10.4618878,7.42132653 C10.4618878,5.81908163 9.12137755,4.52035714 7.46770408,4.52035714 Z" id="Shape"></path>
                    </g>
                </g>
            </g>
        </g>
    </g>
</svg>