<?xml version="1.0" encoding="UTF-8"?>
<svg width="70px" height="53px" viewBox="0 0 70 53" version="1.1" xmlns="http://www.w3.org/2000/svg" xmlns:xlink="http://www.w3.org/1999/xlink">
    <!-- Generator: sketchtool 52.2 (67145) - http://www.bohemiancoding.com/sketch -->
    <title>2AC5B4BC-81B8-4843-91FB-8415B336C072</title>
    <desc>Created with sketchtool.</desc>
    <g id="Page-1" stroke="none" stroke-width="1" fill="none" fill-rule="evenodd">
        <g id="Главная" transform="translate(-1152.000000, -2290.000000)" fill="#8C8C8C" fill-rule="nonzero">
            <g id="Стиль" transform="translate(393.000000, 2212.000000)">
                <g id="Group-12" transform="translate(0.000000, 61.000000)">
                    <g id="high-heel" transform="translate(759.000000, 17.000000)">
                        <path d="M64.5421356,1.09698305 C64.1560678,0.700949153 63.644,0.452271186 63.0942034,0.393661017 C61.9839322,0.275728814 60.8921695,0.215932203 59.8485763,0.215932203 C52.2503729,0.215932203 47.9844068,3.28501695 45.7434576,5.85983051 C42.8447458,9.19064407 39.9953898,14.799661 37.2397627,19.248339 C34.9015254,23.0228814 32.693322,26.5881356 30.5366102,29.3062712 C27.9653559,32.546678 26.4260678,33.3382712 25.5872542,33.4317627 C25.3751186,33.4554915 25.1674915,33.4673559 24.9700678,33.4673559 C22.4111525,33.4673559 21.603661,31.3462373 21.4563051,30.8752203 C21.2937627,30.241661 20.8844407,29.7310169 20.3111525,29.4149492 C19.7340678,29.0969831 19.0589831,29.0611525 18.4334915,29.2668814 C17.9657966,29.4201695 6.92928814,33.0748814 2.4459661,37.5577288 C0.554067797,39.4496271 -0.777355932,42.7519661 0.512067797,45.8651864 C1.67216949,48.665661 5.23457627,52.0038305 15.6187797,52.0038305 L28.418339,52.0038305 C33.1474915,52.0038305 37.4224746,46.4078644 42.3727797,39.9284746 C45.7299322,35.5338983 49.4366102,29.6735932 53.2393898,26.7454576 L53.5523729,49.5535932 C53.5701695,50.851322 54.6270508,51.8937288 55.9250169,51.8937288 L59.2003051,51.8937288 C60.378678,51.8937288 61.3786102,51.0288136 61.5482712,49.8630169 C61.5793559,49.6501695 64.6911525,28.4828814 68.1244746,21.1397627 C73.2387458,10.202678 64.8997288,1.46359322 64.5421356,1.09698305 Z M38.6015593,37.0475593 C35.1262373,41.5966102 30.8009492,47.2580678 28.418339,47.2580678 L15.6187797,47.2580678 C6.90342373,47.2580678 5.20847458,44.801661 4.89667797,44.0489831 C4.4479661,42.9655254 5.05138983,41.6642373 5.8019322,40.9136949 C8.32620339,38.3891864 14.3357627,35.8134237 17.9786102,34.4585085 C19.2238983,36.3195593 21.4698305,38.2131186 24.9700678,38.2131186 C25.3423729,38.2131186 25.7267797,38.1912881 26.1126102,38.148339 C31.4857627,37.5498983 36.0217627,30.2267119 41.2741356,21.7476949 C43.930339,17.459661 46.6769492,12.0165085 49.3234237,8.97566102 C50.9170508,7.14450847 54.036678,4.9619322 59.8488136,4.9619322 C60.4403729,4.9619322 61.0532881,4.98518644 61.6794915,5.03098305 C62.8253559,6.4580339 65.3320678,10.1568814 64.9766102,14.8214915 C64.9766102,14.8214915 57.092,19.0138983 54.4953559,20.4689492 C48.3835254,23.8934915 43.2327119,30.9855593 38.6015593,37.0475593 Z M58.1825763,41.104 L57.9478983,23.9990847 L62.9328475,21.3134576 C60.9968136,26.6149492 59.2914237,34.9295254 58.1825763,41.104 Z" id="Shape"></path>
                    </g>
                </g>
            </g>
        </g>
    </g>
</svg>