<?xml version="1.0" encoding="UTF-8"?>
<svg width="70px" height="45px" viewBox="0 0 70 45" version="1.1" xmlns="http://www.w3.org/2000/svg" xmlns:xlink="http://www.w3.org/1999/xlink">
    <!-- Generator: sketchtool 52.2 (67145) - http://www.bohemiancoding.com/sketch -->
    <title>D30A678B-090F-4B3C-99FA-9E1E577F74DC</title>
    <desc>Created with sketchtool.</desc>
    <g id="Page-1" stroke="none" stroke-width="1" fill="none" fill-rule="evenodd">
        <g id="Главная" transform="translate(-1304.000000, -2298.000000)" fill="#8C8C8C" fill-rule="nonzero">
            <g id="Стиль" transform="translate(393.000000, 2212.000000)">
                <g id="Group-12" transform="translate(0.000000, 61.000000)">
                    <g id="sneaker" transform="translate(911.000000, 25.000000)">
                        <path d="M0.0702372881,29.9270169 C0.403627119,32.6453898 1.09081356,35.3630508 3.1860678,37.3652881 C8.17623729,42.1338305 20.0337627,44.5477627 38.4520678,44.5477627 C39.0991525,44.5477627 39.7576271,44.544678 40.4208475,44.5387458 C54.6256271,44.4108475 67.6112203,42.9270847 67.7407797,42.9118983 C68.9378983,42.7735593 69.8412542,41.7598644 69.8412542,40.554678 L69.8412542,4.7239322 C69.8412542,3.92877966 69.4428475,3.18654237 68.780339,2.74684746 C68.1180678,2.30715254 67.2792542,2.22884746 66.5465085,2.53732203 C66.4916949,2.56057627 60.9844746,4.85230508 54.8277966,4.85230508 C50.1017288,4.85230508 46.3542373,3.50118644 43.6897288,0.836440678 C43.1010169,0.247491525 42.2460678,0.00996610169 41.4390508,0.211661017 C40.631322,0.412644068 39.9877966,1.02223729 39.7433898,1.81810169 C39.6956949,1.97352542 34.7733898,17.3692542 17.1998305,19.2044407 C7.21664407,20.247322 1.71345763,22.5884068 0.376101695,26.3612881 C-0.0156610169,27.466339 -0.0702372881,28.7813898 0.0702372881,29.9270169 Z M5.25023729,28.8513898 C5.19566102,28.7968136 4.72108475,28.308 4.84898305,27.9466102 C4.86227119,27.9093559 4.98755932,27.5951864 5.56511864,27.1462373 C9.38569492,29.2149153 14.4878644,30.075322 17.3096949,30.0750847 C17.6758305,30.0750847 18.0037627,30.0606102 18.2851864,30.0323729 C19.3646102,29.9244068 20.2717627,29.3743729 20.8393559,28.4833559 C21.7932542,26.9860678 21.532,24.8644746 21.1611186,23.3847458 C21.5184746,23.3104746 21.871322,23.2321695 22.2182373,23.1481695 C22.2077966,24.2392203 22.2996271,25.618339 22.6538983,27.1127797 C23.0340339,28.7154237 23.6702034,30.5038644 24.9377966,32.1689153 C12.824,31.9218983 6.45613559,30.0572881 5.25023729,28.8513898 Z M16.9010847,24.0118983 C17.0807119,24.6385763 17.2036271,25.3335932 17.223322,25.8112542 C17.216678,25.8112542 17.2097966,25.8112542 17.2031525,25.8112542 C15.8171525,25.8112542 13.6205763,25.508 11.4377627,24.8934237 C12.9089492,24.5673898 14.7071186,24.2634237 16.9010847,24.0118983 Z M27.1025763,21.5431525 C27.398,21.418339 27.6893898,21.290678 27.9750847,21.1592203 L28.9854576,23.7568136 C29.3506441,24.6955254 30.2473559,25.2702373 31.1974576,25.2702373 C31.4836271,25.2702373 31.7745424,25.2180339 32.0571525,25.1081695 C33.2784746,24.6331186 33.8835593,23.2577966 33.4085085,22.0364746 L32.1577627,18.8202712 C32.7267797,18.439661 33.2675593,18.0486102 33.7841356,17.6513898 L35.2114237,19.7134237 C35.6722373,20.3790169 36.412339,20.7358983 37.1645424,20.7358983 C37.630339,20.7358983 38.1011186,20.5989831 38.5130508,20.314 C39.5905763,19.5682034 39.8594237,18.0898983 39.1136271,17.0123729 L37.3398983,14.4503729 C37.740678,14.0294237 38.1165424,13.6117966 38.4667797,13.2017627 C40.8576949,15.2782712 46.3881695,21.1316949 46.7889492,31.1023051 C43.3046102,31.4371186 39.6214237,31.7387119 35.9489153,31.9527458 C34.7596271,32.0222712 33.5693898,32.0737627 32.3822373,32.1138644 C29.7077627,30.9089153 28.0009492,28.9111864 27.3075932,26.1650508 C26.7122373,23.8068814 27.0748136,21.5998644 27.0847797,21.5431525 L27.1025763,21.5431525 Z M65.0952542,24.3137288 L65.0952542,28.9031186 C62.4736949,29.2813559 57.5036949,29.9637966 51.5181017,30.6168136 C50.9464746,18.6904746 44.1740339,11.7856271 41.2862373,9.36766102 C41.5515254,8.94694915 41.7966441,8.53715254 42.0225424,8.1420678 C48.2069831,11.1100678 62.3004746,19.1232881 65.0952542,24.3137288 Z M65.0952542,8.03884746 L65.0952542,17.020678 C62.2805424,14.3858305 58.4651864,11.8027119 54.7812881,9.59735593 C54.7967119,9.59735593 54.8118983,9.5980678 54.8275593,9.5980678 C58.8429492,9.5980678 62.5678983,8.77491525 65.0952542,8.03884746 Z M40.3396949,39.7932203 C24.3951186,39.9372542 13.0598644,38.2641356 7.94583051,35.0621695 C14.2852203,36.711322 23.1896949,36.9429153 27.6651864,36.9429153 C30.478,36.9429153 33.3582034,36.8582034 36.2253559,36.690678 C47.9962712,36.0037288 59.8806102,34.438339 65.0952542,33.6972881 L65.0952542,38.4174237 C60.8978644,38.832678 50.9626102,39.6992542 40.3396949,39.7932203 Z" id="Shape"></path>
                    </g>
                </g>
            </g>
        </g>
    </g>
</svg>