<?xml version="1.0" encoding="UTF-8"?>
<svg width="70px" height="29px" viewBox="0 0 70 29" version="1.1" xmlns="http://www.w3.org/2000/svg" xmlns:xlink="http://www.w3.org/1999/xlink">
    <!-- Generator: sketchtool 52.2 (67145) - http://www.bohemiancoding.com/sketch -->
    <title>D6ED3261-E288-4A38-B97C-6D9A1C6B83CA</title>
    <desc>Created with sketchtool.</desc>
    <g id="Page-1" stroke="none" stroke-width="1" fill="none" fill-rule="evenodd">
        <g id="Главная" transform="translate(-849.000000, -2313.000000)" fill="#8C8C8C" fill-rule="nonzero">
            <g id="Стиль" transform="translate(393.000000, 2212.000000)">
                <g id="Group-12" transform="translate(0.000000, 61.000000)">
                    <g id="loafer" transform="translate(456.000000, 40.000000)">
                        <path d="M69.8076174,6.11865772 C69.4031208,3.33815436 66.8248658,1.79557047 66.5321812,1.62879195 C65.9266107,1.28348993 65.1993624,1.2257047 64.547047,1.4692953 C57.2282886,4.20493289 47.5675839,6.49520134 41.3258389,7.83271812 C41.3378188,7.82144295 41.3537919,7.8064094 41.3641275,7.79654362 C41.8982886,7.28516779 42.160906,6.55251678 42.0725839,5.81845638 C41.9840268,5.08439597 41.5553356,4.43466443 40.915,4.06516779 L34.4785235,0.347885906 C33.5584228,-0.184395973 32.3949664,-0.0310067114 31.6428188,0.72090604 C26.7021812,5.66130872 10.1424832,9.85261745 4.17838926,11.050604 C4.17557047,11.0510738 4.17369128,11.0524832 4.17110738,11.052953 C3.72550336,11.144094 3.30973154,11.3630201 2.97993289,11.6928188 C0.174060403,14.4979866 -0.687550336,18.0238255 0.553657718,21.6203691 C1.42114094,24.1344966 3.01469799,25.8285906 3.19369128,26.0134564 C3.55567114,26.387651 4.03181208,26.6310067 4.54741611,26.7052349 C5.0402349,26.7761745 13.7890604,28.0143289 23.3417114,28.0143289 C26.7315436,28.014094 30.223557,27.8583557 33.4823154,27.4388255 C40.5349329,26.5311745 41.6995638,26.7000671 43.6283221,26.980302 C45.0933893,27.1931208 46.9171477,27.4580872 51.158255,27.4580872 C61.8118792,27.4580872 67.1349329,24.7579195 67.3562081,24.6430537 C68.1344295,24.2390268 68.6227852,23.4349664 68.6227852,22.5583221 L68.6227852,10.2869463 C69.841443,8.65510067 69.9577181,7.15104027 69.8076174,6.11865772 Z M64.7734899,6.38550336 C64.7734899,6.38550336 65.0891946,6.4059396 65.1587248,6.79469799 C65.2364765,7.23020134 65.0680537,7.43033557 64.6506376,7.73053691 C62.5933893,9.20993289 47.5060403,14.3777181 38.619094,14.6713423 C37.9625503,14.6931879 37.5399664,14.333557 37.5399664,13.885604 C37.5399664,13.5407718 37.797651,13.3575503 37.797651,13.3575503 C42.5747987,12.4242953 55.0315101,9.85097315 64.7734899,6.38550336 Z M33.5774497,5.25258389 L35.7399329,6.50130872 C32.6864765,9.01872483 28.6480872,11.741443 25.8173154,12.2591611 C23.3750671,12.3540604 20.8043289,12.3651007 18.3338926,12.2591611 C23.8934899,10.5032886 29.9069128,8.08969799 33.5774497,5.25258389 Z M51.158255,22.7603356 C47.2568121,22.7603356 45.6193289,22.5223826 44.3036577,22.3314094 C41.852953,21.975302 40.231443,21.8331879 32.8823826,22.7795973 C22.7006711,24.0898658 9.60902685,22.6163423 6.10855705,22.1733221 C5.74493289,21.6758054 5.25493289,20.8959396 4.95614094,19.9730201 C4.46238255,18.4480537 4.65969799,17.1152349 5.58238255,15.8474832 C9.92191275,16.3938591 24.1443624,17.9521812 33.0994295,16.1958389 L33.0994295,16.7497315 C33.0994295,17.9592282 34.0178859,18.9711745 35.2219799,19.0876846 C35.8980201,19.1532215 36.6348993,19.1863423 37.4121812,19.1863423 C43.5738255,19.1863423 51.5737919,17.1344966 55.7939933,15.9113758 C56.8919128,15.5930872 60.7846644,14.4394966 63.9245638,13.1980537 L63.9245638,20.9729866 C61.966443,21.6459732 57.7300336,22.7603356 51.158255,22.7603356 Z" id="Shape"></path>
                    </g>
                </g>
            </g>
        </g>
    </g>
</svg>