<?xml version="1.0" encoding="UTF-8"?>
<svg width="70px" height="29px" viewBox="0 0 70 29" version="1.1" xmlns="http://www.w3.org/2000/svg" xmlns:xlink="http://www.w3.org/1999/xlink">
    <!-- Generator: sketchtool 52.2 (67145) - http://www.bohemiancoding.com/sketch -->
    <title>C18F3C5F-2D9D-4D4F-A5E8-6DED16E8A863</title>
    <desc>Created with sketchtool.</desc>
    <g id="Page-1" stroke="none" stroke-width="1" fill="none" fill-rule="evenodd">
        <g id="Главная" transform="translate(-697.000000, -2313.000000)" fill="#8C8C8C" fill-rule="nonzero">
            <g id="Стиль" transform="translate(393.000000, 2212.000000)">
                <g id="Group-12" transform="translate(0.000000, 61.000000)">
                    <g id="sandal-(1)" transform="translate(304.000000, 40.000000)">
                        <path d="M3.43556291,28.2134768 L66.4311589,28.2137086 C67.7110927,28.2137086 68.7490397,27.1759934 68.7490397,25.8958278 L68.7490397,16.9124172 C68.7490397,16.271755 68.4838742,15.6598344 68.0165894,15.2215232 C67.5493046,14.7832119 66.9211589,14.5593046 66.282351,14.5991722 C65.9110265,14.6232781 63.5683444,14.774404 60.1045033,15.0061921 L60.1045033,7.32589404 C65.4425828,6.72509934 68.6533113,4.53771523 68.8797682,4.37847682 C69.9274503,3.64324503 70.1810265,2.19758278 69.4455629,1.14966887 C68.7103311,0.101754967 67.2646689,-0.151589404 66.216755,0.583874172 C66.1421192,0.636258278 58.617351,5.75970199 47.0499669,0.379437086 C45.8887086,-0.160629139 44.5102649,0.343046358 43.9706623,1.50360927 C43.4308278,2.66440397 43.9342715,4.04307947 45.0948344,4.58291391 C48.9265232,6.36490066 52.4140066,7.17360927 55.4687417,7.40470199 L55.4687417,15.3195695 C50.6915894,15.6461589 44.912649,16.0520199 39.3566887,16.4701656 L33.8533444,7.54215232 C34.5609934,7.12284768 35.2060596,6.6384106 35.7720861,6.07215232 C36.6772185,5.16701987 36.6772185,3.69933775 35.7720861,2.79397351 C34.8667219,1.88907285 33.3995033,1.88907285 32.4939073,2.79397351 C30.264106,5.02400662 24.7234437,6.63701987 19.4521192,6.93231788 C13.1080795,7.28764901 5.97178808,6.87900662 2.58003311,11.1698675 C-1.68880795,16.5707616 1.13970199,26.2539404 1.27576159,26.6475166 C1.2794702,26.657947 1.28433775,26.6662914 1.28804636,26.6760265 C1.61927152,27.5556623 2.44188742,28.1993377 3.43556291,28.2134768 Z M55.4687417,19.9678477 L55.4687417,23.5777152 L43.7381788,23.5777152 L42.0978146,20.9165563 C46.7532781,20.5730464 51.45,20.2436755 55.4687417,19.9678477 Z M23.5475828,23.577947 L23.2847351,22.4822848 C23.7214238,22.4363907 24.1868543,22.3893377 24.6800993,22.3411258 L25.0154967,23.577947 L23.5475828,23.577947 Z M11.9248013,12.7240066 L15.3981457,12.4558278 L18.4753642,23.5777152 L12.8106954,23.5777152 L11.9248013,12.7240066 Z M30.2233113,23.577947 L26.5193377,11.152947 L30.0249007,10.1662252 L39.1012583,23.577947 L30.2233113,23.577947 Z M21.8501987,12.1864901 L23.4810596,17.8027152 C22.9189735,17.8597351 22.395596,17.9149007 21.9150993,17.9686755 L20.3407947,12.4560596 L21.8501987,12.1864901 Z M6.2144702,14.0477483 C6.50837748,13.6764238 6.8755298,13.3489073 7.30109272,13.0570861 L8.0557947,23.3185762 C7.25798013,23.4437417 6.32943709,23.5285762 5.22913907,23.5638079 C4.63344371,20.9091391 4.2194702,16.5679801 6.2144702,14.0477483 Z M64.1132781,19.386755 L64.1132781,23.577947 L60.1042715,23.577947 L60.1042715,19.653543 C61.6890066,19.5471523 63.0533113,19.4565232 64.1132781,19.386755 Z" id="Shape"></path>
                    </g>
                </g>
            </g>
        </g>
    </g>
</svg>