<?xml version="1.0" encoding="UTF-8"?>
<svg width="12px" height="12px" viewBox="0 0 12 12" version="1.1" xmlns="http://www.w3.org/2000/svg" xmlns:xlink="http://www.w3.org/1999/xlink">
    <!-- Generator: sketchtool 52.2 (67145) - http://www.bohemiancoding.com/sketch -->
    <title>3BB9BAE4-0605-4F9E-8006-9850DB2BD6A8</title>
    <desc>Created with sketchtool.</desc>
    <g id="Page-1" stroke="none" stroke-width="1" fill="none" fill-rule="evenodd">
        <g id="Главная" transform="translate(-1446.000000, -54.000000)" fill="#272727" fill-rule="nonzero">
            <g id="Шапка">
                <g id="Group-10">
                    <g id="Group-9" transform="translate(1446.000000, 53.000000)">
                        <g id="search" transform="translate(0.000000, 1.000000)">
                            <path d="M11.9171111,10.9744444 L8.39888889,7.45622222 C8.98288889,6.67688889 9.33333333,5.71311111 9.33333333,4.66666667 C9.33333333,2.09333333 7.24,0 4.66666667,0 C2.09333333,0 0,2.09333333 0,4.66666667 C0,7.24 2.09333333,9.33333333 4.66666667,9.33333333 C5.71311111,9.33333333 6.67688889,8.98288889 7.45622222,8.39888889 L10.9744444,11.9171111 L11.9171111,10.9744444 Z M0.444444444,4.66666667 C0.444444444,2.33844444 2.33844444,0.444444444 4.66666667,0.444444444 C6.99488889,0.444444444 8.88888889,2.33844444 8.88888889,4.66666667 C8.88888889,6.99488889 6.99488889,8.88888889 4.66666667,8.88888889 C2.33844444,8.88888889 0.444444444,6.99488889 0.444444444,4.66666667 Z M7.90377778,8.02066667 C7.94333333,7.98244444 7.98222222,7.94355556 8.02044444,7.904 C8.05288889,7.87044444 8.088,7.83955556 8.11933333,7.80511111 L11.2886667,10.9744444 L10.9742222,11.2888889 L7.80511111,8.11933333 C7.83955556,8.088 7.87022222,8.05288889 7.90377778,8.02066667 Z" id="Shape"></path>
                        </g>
                    </g>
                </g>
            </g>
        </g>
    </g>
</svg>