<?xml version="1.0" encoding="UTF-8"?>
<svg width="70px" height="30px" viewBox="0 0 70 30" version="1.1" xmlns="http://www.w3.org/2000/svg" xmlns:xlink="http://www.w3.org/1999/xlink">
    <!-- Generator: sketchtool 52.2 (67145) - http://www.bohemiancoding.com/sketch -->
    <title>B7DDC21F-DF8C-452C-ADFA-007CFF8819D4</title>
    <desc>Created with sketchtool.</desc>
    <g id="Page-1" stroke="none" stroke-width="1" fill="none" fill-rule="evenodd">
        <g id="Главная" transform="translate(-545.000000, -2311.000000)" fill="#8C8C8C" fill-rule="nonzero">
            <g id="Стиль" transform="translate(393.000000, 2212.000000)">
                <g id="Group-12" transform="translate(0.000000, 61.000000)">
                    <g id="sandal" transform="translate(152.000000, 38.000000)">
                        <path d="M69.3021141,16.1404027 C68.8555705,15.6992617 68.257047,15.4472148 67.6230537,15.4624832 C66.5822148,15.4749329 50.383557,15.6727181 36.8686242,16.1284228 L32.7602349,1.8209396 C32.4177517,0.628355705 31.205906,-0.0911409396 29.9954698,0.175469799 L13.6981544,3.77812081 C12.5321141,4.03604027 11.7452013,5.12738255 11.8687584,6.31503356 L13.0867114,18.0153691 C10.7431208,18.3580872 8.39224832,18.8119128 6.38197987,19.5398658 C1.10731544,21.4500671 0,24.7208054 0,27.1282886 C0,28.4256376 1.05187919,29.4772819 2.34899329,29.4772819 L67.6510067,29.4772819 C68.9481208,29.4772819 70,28.4256376 70,27.1282886 L70,17.8112416 C70,17.1833557 69.7486577,16.5817785 69.3021141,16.1404027 Z M18.566443,24.7792953 L16.7586577,7.91305369 L28.854094,5.23919463 L34.6781879,24.7792953 L18.566443,24.7792953 Z M7.98187919,23.9569128 C9.57097315,23.3814094 11.5471812,22.9952349 13.5738926,22.6931544 L13.7911745,24.7792953 L6.22577181,24.7792953 C6.66973154,24.5025839 7.24265101,24.224698 7.98187919,23.9569128 Z M65.3020134,24.7792953 L39.3526846,24.7792953 L38.205906,20.7857718 C48.5971477,20.4536242 60.363255,20.2628859 65.3020134,20.1921812 L65.3020134,24.7792953 Z" id="Shape"></path>
                    </g>
                </g>
            </g>
        </g>
    </g>
</svg>